<svg xmlns="http://www.w3.org/2000/svg" fill="none" viewBox="0 0 183 218"><ellipse cx="78.5" cy="115" fill="#FFFFE8" rx="78.5" ry="82"/><ellipse cx="80.5" cy="74" fill="url(#paint0_linear)" rx="33.5" ry="34"/><path fill="#FF5B5B" d="M91 101.5c0 18.502-14.876 33.5-33.225 33.5-18.35 0-36.634-9.845-36.634-28.346 0-1.455-9.371-4.295 4.26-14.603C27.49 75.578 40.868 68 57.775 68 76.125 68 91 82.999 91 101.5z"/><path fill="#FFD2CC" d="M88 98.267C66.688 62.44 68 97 47.5 87s.204 7.002-28.272 13.826c0 0-8.629 2.559 2.328-11.942C23.674 72.525 37.222 65 54.346 65 72.934 65 88 79.894 88 98.267z"/><path fill="#FFEF5B" d="M134.791 99.064c0 2.053 7.173 3.6 3.209 11.436-7.823 15.462-20.462 25.5-37.107 25.5-18.721 0-56.497-26.628-33.898-34.359C66.995 83.139 82.172 69 100.893 69c18.722 0 28.683 11.167 33.898 30.064z"/><path fill="#42BFED" d="M24.088 118.092h111.765c-5.747 25.553-17.672 42.034-31.712 50.458-.536.322-1.074.631-1.616.929-5.77 3.466-12.26 9.115-12.26 19.255 0 10.092 5.7 18.954 18.201 18.954 7.353 0 1.652 10.312-4.325 10.312H57.176c-6.617 0-12.207-10.312-2.649-10.312 9.56 0 15.15-7.853 15.15-18.954 0-8.537-2.122-13.464-9.446-17.834a51.715 51.715 0 0 1-4.536-2.35c-15.2-8.838-27.552-26.112-31.607-50.458z"/><path fill="url(#paint1_linear)" fill-rule="evenodd" d="M104.141 168.55c-.536.322-1.074.631-1.616.929a53.265 53.265 0 0 1 1.616-.929zm-48.446 0c1.697.778 3.203 1.555 4.536 2.35a51.715 51.715 0 0 1-4.536-2.35z" clip-rule="evenodd"/><path fill="url(#paint2_linear)" d="M135.853 118.092H24.088c4.055 24.346 16.406 41.62 31.607 50.458 1.697.778 3.203 1.555 4.536 2.35 13.54 6.187 28.802 6.004 42.294-1.421a53.265 53.265 0 0 1 1.616-.929c14.04-8.424 25.965-24.905 31.712-50.458z"/><path fill="#84DEFF" d="M24 109.5a4.5 4.5 0 0 0 0 9v-9zm111 9a4.5 4.5 0 0 0 0-9v9zm-111 0h111v-9H24v9z"/><path fill="url(#paint3_linear)" d="M55 204a7 7 0 1 0 0 14v-14zm50 14a7 7 0 1 0 0-14v14zm-50 0h50v-14H55v14z"/><path stroke="#fff" stroke-linecap="round" stroke-width="3" d="M83.013 164.553c6.117-1.26 17.92-5.553 26.483-13.861m6.944-9.265a32.139 32.139 0 0 1-2.376 3.947"/><path stroke="#EB592B" stroke-width="3" d="M72 83.436c32.302 16.32 46.27 9.449 55-3.436M78 76.65c4.375 6.183 36.75 6.183 42-2.65M67 98.97c20.883-2.558 40.396 9.883 66.5-5.47"/><path stroke="#FFC1A6" stroke-linecap="round" stroke-width="13" d="M109.107 7.162l16.57 4.098 3.896 21.122m24.142 46.255l-15.985-2.031-8.157-44.224m0 0L97.855 60.049"/><path stroke="#A87474" stroke-linecap="round" stroke-width="2" d="M99.522 50.535c-1.193 6.28 1.104 9.255 6.751 9.812M106.662 44.342c-1.19 6.297 1.109 9.284 6.757 9.846M113.834 38.653c-1.133 6.58 1.158 9.005 6.822 9.65"/><path fill="#A87474" d="M129.028 71.944l-7.95-48.353c.598-.13 3.803 5.427 4.125 2.768.352-2.915 1.602-6.023 4.134 1.948 5.064 15.943.474-6.873 4.779-8.747 3.455 18.813 8.178 49.836 9.889 51.09 24.671-.763 18.686 16.223 10.96 15.538-24.073-2.133-23.807-.407-25.937-14.244z"/><path fill="#FF5B5B" d="M124.376 44.668l1.926-1.345 5.883 7.973-1.926 1.344zM61.601 51.892l1.926-1.345 5.883 7.973-1.926 1.344zM137.87 57.852l2.754.925-3.462 9.323-2.753-.925zM72.746 43.46l2.754.926-3.461 9.323-2.754-.925zM147.16 82.14l1.064-2.654 9.491 3.457-1.064 2.654zM79.767 51.674l1.065-2.654 9.49 3.456-1.063 2.655zM140.66 75.186l-.13 2.017-4.226-.2.13-2.017zM129.367 58.426l.01-1.725 5.042-.042-.01 1.725zM134.022 49.843l.014-2.57 2.686-.023-.014 2.57zM131.197 72.337l.01-1.725 7.122-.06-.01 1.725zM152.336 72.658l1.137 1.313-5.483 4.475-1.137-1.312z"/><path fill="#FFEF5B" d="M130.673 43.835l1.313.441-3.461 9.323-1.313-.44zM83.43 48.48l1.314.441-3.462 9.323-1.312-.44zM134.121 64.288l-1.248 1.752-4.134-2.73 1.248-1.752 4.134 2.73zM71.608 49.354l-1.248 1.752-4.133-2.73 1.248-1.752 4.133 2.73zM142.853 71.972l-1.131 1.588-1.971-1.302 1.131-1.588zM154.217 80.013l-.16-1.739 4.834-.484.16 1.738zM133.431 73.746l-1.167-1.43 8.942-6.884 1.167 1.43zM142.771 76.483l3.531.68-1.653 7.523-3.531-.68 1.653-7.523zM76.407 45.803l3.531.68-1.653 7.523-3.53-.68 1.652-7.523zM83.594 44.31l2.034.392-.363 1.65-2.034-.393.363-1.65zM65.523 50.132l3.531.682-1.653 7.522-3.531-.681 1.653-7.523z"/><defs><linearGradient id="paint0_linear" x1="80.5" x2="81.385" y1="40" y2="87.948" gradientUnits="userSpaceOnUse"><stop stop-color="#8A5555"/><stop offset="1" stop-color="#DB6B5B"/></linearGradient><linearGradient id="paint1_linear" x1="76.294" x2="79.053" y1="119.101" y2="148.245" gradientUnits="userSpaceOnUse"><stop stop-color="#27C5FF"/><stop offset="1" stop-color="#CEFBEB" stop-opacity=".8"/></linearGradient><linearGradient id="paint2_linear" x1="76.294" x2="79.053" y1="119.101" y2="148.245" gradientUnits="userSpaceOnUse"><stop stop-color="#27C5FF"/><stop offset="1" stop-color="#CEFBEB" stop-opacity=".8"/></linearGradient><linearGradient id="paint3_linear" x1="78.5" x2="78.468" y1="204.5" y2="210.997" gradientUnits="userSpaceOnUse"><stop stop-color="#B2EFEB"/><stop offset="1" stop-color="#20C3FF"/></linearGradient></defs></svg>